<svg width="15" height="19" viewBox="0 0 15 19" fill="none" xmlns="http://www.w3.org/2000/svg">
<path fill-rule="evenodd" clip-rule="evenodd" d="M7.43492 18.9612C7.4458 18.9743 7.4567 18.9874 7.46806 19H7.54121C7.55399 18.9863 7.56636 18.972 7.57874 18.9577C7.60532 18.927 7.63194 18.8962 7.66282 18.8708C9.17801 17.6195 10.5666 16.2382 11.8138 14.7104C12.7758 13.5321 13.6404 12.2906 14.2708 10.8906C14.9105 9.47018 15.1546 7.99029 14.9018 6.44675C14.5648 4.39163 13.5754 2.7231 11.919 1.48761C10.268 0.256309 8.40853 -0.225526 6.38813 0.0978655C4.09112 0.464933 2.29978 1.67347 1.10327 3.70442C-0.158621 5.84643 -0.334646 8.1097 0.557823 10.4455C1.0891 11.8366 1.89698 13.0623 2.80225 14.2225C4.14919 15.9482 5.67534 17.4964 7.36061 18.8824C7.38834 18.9052 7.41162 18.9332 7.43492 18.9612ZM7.5 12C9.98528 12 12 9.98528 12 7.5C12 5.01472 9.98528 3 7.5 3C5.01472 3 3 5.01472 3 7.5C3 9.98528 5.01472 12 7.5 12Z" fill="#FECF0A"/>
</svg>
