<svg width="20" height="15" viewBox="0 0 20 15" fill="none" xmlns="http://www.w3.org/2000/svg">
<path d="M0.00504025 13.4015C0.00504025 10.3403 0.00504025 7.27392 0.00504025 4.21275C0.0352822 4.22319 0.065524 4.23364 0.0907257 4.24931C2.70666 6.05677 5.31755 7.86422 7.93348 9.66645C9.07259 10.4552 10.252 10.4605 11.3861 9.6769C13.9668 7.90079 16.5474 6.11423 19.128 4.33289C19.1835 4.29633 19.2389 4.25976 19.3196 4.20752C19.3196 4.28066 19.3196 4.32245 19.3196 4.36946C19.3196 7.2896 19.3196 10.2097 19.3196 13.1246C19.3196 13.2866 19.2994 13.4537 19.2641 13.6052C19.0575 14.4619 18.3569 15 17.4446 15C14.874 15 12.3034 15 9.72783 15C7.1119 15 4.49597 15 1.88004 15C1.36593 15 0.91734 14.8433 0.539315 14.4724C0.246976 14.1799 0.0957662 13.809 0.00504025 13.4015Z" fill="#FECF0A"/>
<path d="M0.00504025 1.5956C0.0352822 1.4859 0.0655243 1.37097 0.100807 1.26127C0.347783 0.503812 1.00807 0.0127694 1.80948 0.00232171C2.18246 -0.00290214 2.55041 0.00232171 2.92339 0.00232171C7.75707 0.00232171 12.5958 0.00232171 17.4295 0.00232171C17.994 0.00232171 18.4778 0.174709 18.8609 0.618736C19.5817 1.44933 19.4506 2.68738 18.5635 3.31424C17.3891 4.13961 16.2047 4.94931 15.0202 5.76423C13.6139 6.73587 12.2077 7.7075 10.8014 8.67914C9.99497 9.23809 9.33973 9.23809 8.52824 8.67914C6.04839 6.96572 3.57863 5.24707 1.08871 3.54932C0.559476 3.18887 0.131049 2.77619 0 2.10753C0.00504033 1.93515 0.00504025 1.76276 0.00504025 1.5956Z" fill="#FECF0A"/>
</svg>
